<svg width="48" height="48" viewBox="0 0 48 48" fill="none" xmlns="http://www.w3.org/2000/svg">
<path fill-rule="evenodd" clip-rule="evenodd" d="M47 24C47 36.7025 36.7025 47 24 47C11.2975 47 1 36.7025 1 24C1 11.2975 11.2975 1 24 1C36.7025 1 47 11.2975 47 24ZM48 24C48 37.2548 37.2548 48 24 48C10.7452 48 0 37.2548 0 24C0 10.7452 10.7452 0 24 0C37.2548 0 48 10.7452 48 24ZM36.4367 23.6464L33.2548 20.4645C33.0595 20.2692 32.7429 20.2692 32.5477 20.4645C32.3524 20.6597 32.3524 20.9763 32.5477 21.1716L34.8761 23.5H12V24.5H34.8761L32.5477 26.8284C32.3524 27.0237 32.3524 27.3403 32.5477 27.5355C32.7429 27.7308 33.0595 27.7308 33.2548 27.5355L36.4367 24.3536C36.632 24.1583 36.632 23.8417 36.4367 23.6464Z" fill="white"/>
</svg>
