<svg width="48" height="48" viewBox="0 0 48 48" fill="none" xmlns="http://www.w3.org/2000/svg">
<path fill-rule="evenodd" clip-rule="evenodd" d="M47 24C47 36.7025 36.7025 47 24 47C11.2975 47 1 36.7025 1 24C1 11.2975 11.2975 1 24 1C36.7025 1 47 11.2975 47 24ZM48 24C48 37.2548 37.2548 48 24 48C10.7452 48 0 37.2548 0 24C0 10.7452 10.7452 0 24 0C37.2548 0 48 10.7452 48 24ZM33.2856 23.4227L34.2856 24.0001L33.2856 24.5774L19.8571 32.3304L18.8571 32.9078V31.7531V16.2471V15.0924L19.8571 15.6697L33.2856 23.4227ZM19.8571 16.8244L32.2856 24.0001L19.8571 31.1757V16.8244Z" fill="white"/>
</svg>
