<svg width="24" height="24" viewBox="0 0 24 24" fill="none" xmlns="http://www.w3.org/2000/svg">
<path fill-rule="evenodd" clip-rule="evenodd" d="M12 22.9091C18.0249 22.9091 22.9091 18.0249 22.9091 12C22.9091 5.97508 18.0249 1.09091 12 1.09091C5.97508 1.09091 1.09091 5.97508 1.09091 12C1.09091 18.0249 5.97508 22.9091 12 22.9091ZM12 24C18.6274 24 24 18.6274 24 12C24 5.37258 18.6274 0 12 0C5.37258 0 0 5.37258 0 12C0 18.6274 5.37258 24 12 24ZM16.112 10.179C15.9182 10.1068 15.7133 10.0403 15.4993 9.97966C15.5538 9.76396 15.5987 9.55333 15.633 9.34935C15.8486 8.068 15.6238 7.16399 15 6.80383C14.3762 6.44369 13.4809 6.70101 12.479 7.52837C12.3195 7.66009 12.1595 7.80428 12 7.9593C11.8404 7.80426 11.6805 7.66007 11.521 7.52837C10.5191 6.70098 9.62381 6.44364 9 6.80383C8.37619 7.16399 8.15137 8.068 8.367 9.34935C8.40131 9.55333 8.44622 9.76396 8.50069 9.97966C8.28666 10.0403 8.08179 10.1068 7.88798 10.179C6.6705 10.633 6 11.2796 6 12C6 12.7203 6.6705 13.367 7.88798 13.8209C8.08179 13.8932 8.28666 13.9596 8.50069 14.0203C8.44622 14.236 8.40131 14.4466 8.367 14.6506C8.15137 15.9319 8.37619 16.8359 9 17.1961C9.18403 17.3024 9.39164 17.3549 9.61866 17.3549C10.1613 17.3549 10.8146 17.0549 11.521 16.4715C11.6805 16.3398 11.8404 16.1956 12 16.0406C12.1596 16.1957 12.3195 16.3398 12.479 16.4715C13.1854 17.0549 13.8387 17.3549 14.3813 17.3549C14.6083 17.3549 14.816 17.3023 15 17.1961C15.6238 16.8359 15.8486 15.9319 15.633 14.6506C15.5987 14.4466 15.5538 14.236 15.4993 14.0203C15.7133 13.9596 15.9182 13.8932 16.112 13.8209C17.3295 13.367 18 12.7203 18 12C18 11.2796 17.3295 10.633 16.112 10.179ZM14.372 7.34619C14.4781 7.34619 14.5711 7.36806 14.6484 7.41276C14.9894 7.60961 15.0983 8.28995 14.9396 9.23268C14.9081 9.42008 14.8668 9.61391 14.8165 9.81266C14.3656 9.71854 13.8849 9.64762 13.3847 9.60163C13.0948 9.19145 12.793 8.81055 12.486 8.46714C12.633 8.32426 12.7802 8.19154 12.9267 8.07053C13.4966 7.59993 14.0105 7.34619 14.372 7.34619ZM14.3599 12.82C14.4554 13.0537 14.5413 13.2845 14.6171 13.511C14.3831 13.5585 14.1402 13.5995 13.8901 13.6337C13.972 13.5013 14.0524 13.3669 14.1312 13.2304C14.21 13.094 14.2862 12.9571 14.3599 12.82ZM13.5223 12.8789C13.3534 13.1714 13.1772 13.4539 12.9956 13.7243C12.6705 13.7464 12.3377 13.7578 12 13.7578C11.6623 13.7578 11.3295 13.7464 11.0044 13.7243C10.8228 13.4539 10.6465 13.1714 10.4777 12.8789C10.3088 12.5864 10.1523 12.2925 10.0089 12C10.1523 11.7075 10.3088 11.4135 10.4777 11.1211C10.6466 10.8286 10.8228 10.5461 11.0044 10.2756C11.3295 10.2536 11.6623 10.2422 12 10.2422C12.3377 10.2422 12.6705 10.2536 12.9956 10.2756C13.1772 10.5461 13.3535 10.8286 13.5223 11.1211C13.6912 11.4135 13.8477 11.7075 13.9911 12C13.8477 12.2925 13.6912 12.5864 13.5223 12.8789ZM12 15.022C11.8418 14.8431 11.6849 14.6532 11.5302 14.4537C11.6858 14.4584 11.8424 14.4609 12 14.4609C12.1576 14.4609 12.3142 14.4584 12.4698 14.4537C12.3151 14.6532 12.1582 14.8431 12 15.022ZM9.86876 13.2304C9.94755 13.3669 10.028 13.5013 10.1099 13.6337C9.85978 13.5995 9.61692 13.5586 9.38287 13.511C9.4587 13.2845 9.54464 13.0537 9.6401 12.82C9.71381 12.9571 9.78998 13.094 9.86876 13.2304ZM9.6401 11.1799C9.54464 10.9463 9.4587 10.7155 9.38287 10.489C9.61692 10.4414 9.85981 10.4004 10.1099 10.3663C10.028 10.4986 9.94755 10.633 9.86876 10.7695C9.78998 10.906 9.71381 11.0429 9.6401 11.1799ZM12 8.97798C12.1582 9.15688 12.3151 9.34673 12.4698 9.54623C12.3142 9.54151 12.1576 9.53903 12 9.53903C11.8424 9.53903 11.6858 9.54151 11.5302 9.5462C11.6849 9.34673 11.8418 9.15688 12 8.97798ZM14.1312 10.7695C14.0524 10.633 13.972 10.4986 13.8901 10.3663C14.1402 10.4004 14.3831 10.4414 14.6171 10.489C14.5413 10.7154 14.4554 10.9463 14.3599 11.1799C14.2862 11.0429 14.21 10.906 14.1312 10.7695ZM9.06038 9.23266C8.90173 8.28993 9.01059 7.60958 9.35156 7.41273C9.69258 7.21586 10.3362 7.46179 11.0733 8.07051C11.2198 8.19151 11.367 8.32424 11.514 8.46712C11.207 8.8105 10.9052 9.19141 10.6153 9.60161C10.1151 9.64759 9.63431 9.71851 9.18347 9.81264C9.13324 9.61389 9.0919 9.42006 9.06038 9.23266ZM8.13363 13.1621C7.2379 12.8281 6.70312 12.3937 6.70312 12C6.70312 11.6062 7.2379 11.1718 8.13363 10.8378C8.31171 10.7714 8.50022 10.7103 8.69747 10.6544C8.84138 11.092 9.02034 11.5438 9.23063 12C9.02037 12.4562 8.84138 12.908 8.69747 13.3455C8.50022 13.2896 8.31169 13.2285 8.13363 13.1621ZM9.35156 16.5872C9.01059 16.3904 8.90173 15.71 9.06038 14.7673C9.0919 14.5799 9.13324 14.386 9.18349 14.1873C9.63436 14.2814 10.1151 14.3523 10.6153 14.3983C10.9052 14.8085 11.207 15.1894 11.514 15.5328C11.367 15.6757 11.2198 15.8084 11.0733 15.9294C10.3362 16.5381 9.69255 16.7841 9.35156 16.5872ZM14.9396 14.7673C15.0983 15.71 14.9894 16.3904 14.6484 16.5872C14.3075 16.7841 13.6638 16.5381 12.9267 15.9294C12.7802 15.8084 12.633 15.6757 12.486 15.5328C12.793 15.1894 13.0948 14.8085 13.3847 14.3983C13.8849 14.3523 14.3657 14.2814 14.8165 14.1873C14.8668 14.386 14.9081 14.5799 14.9396 14.7673ZM15.8664 13.1621C15.6883 13.2285 15.4998 13.2896 15.3025 13.3455C15.1586 12.908 14.9797 12.4562 14.7694 12C14.9796 11.5438 15.1586 11.092 15.3025 10.6544C15.4998 10.7103 15.6883 10.7714 15.8664 10.8378C16.7621 11.1718 17.2969 11.6063 17.2969 12C17.2969 12.3937 16.7621 12.8281 15.8664 13.1621ZM10.9453 12C10.9453 11.4184 11.4184 10.9453 12 10.9453C12.5816 10.9453 13.0547 11.4184 13.0547 12C13.0547 12.5816 12.5816 13.0547 12 13.0547C11.4184 13.0547 10.9453 12.5816 10.9453 12Z" fill="white"/>
</svg>
