<svg width="24" height="24" viewBox="0 0 24 24" fill="none" xmlns="http://www.w3.org/2000/svg">
<path fill-rule="evenodd" clip-rule="evenodd" d="M23 12C23 18.0751 18.0751 23 12 23C5.92487 23 1 18.0751 1 12C1 5.92487 5.92487 1 12 1C18.0751 1 23 5.92487 23 12ZM24 12C24 18.6274 18.6274 24 12 24C5.37258 24 0 18.6274 0 12C0 5.37258 5.37258 0 12 0C18.6274 0 24 5.37258 24 12ZM16.4922 12C16.4922 12.272 16.4083 12.5859 16.2407 12.8375C16.4038 13.0678 16.4922 13.3407 16.4922 13.6211C16.4922 13.9847 16.3448 14.3311 16.084 14.5882C16.0958 14.6595 16.1016 14.7272 16.1016 14.793C16.1016 15.5658 15.4755 16.2188 14.7344 16.2188L14.7165 16.2185C14.4389 16.6974 13.9235 17 13.3672 17C12.7873 17 12.2692 16.652 12 16.1505C11.7308 16.652 11.2127 17 10.6328 17C10.0765 17 9.56111 16.6974 9.28348 16.2185L9.26562 16.2188C8.42822 16.2188 7.78193 15.3986 7.916 14.5882C7.65523 14.3311 7.50781 13.9847 7.50781 13.6211C7.50781 13.3407 7.59619 13.0678 7.75932 12.8375C7.59238 12.587 7.50781 12.2734 7.50781 12C7.50781 11.5899 7.68998 11.2089 8.00258 10.9506C7.9334 10.7853 7.89844 10.6133 7.89844 10.4375C7.89844 9.89346 8.21596 9.38664 8.68799 9.15C8.61656 8.55959 9 8.01238 9.57705 7.87262C9.80152 7.35359 10.3012 7 10.8281 7C11.3185 7 11.7584 7.28605 12 7.70344C12.2416 7.28605 12.6814 7 13.1719 7C13.6987 7 14.1984 7.35359 14.4229 7.8726C14.9966 8.01148 15.3836 8.55598 15.312 9.15C15.7841 9.38666 16.1016 9.89346 16.1016 10.4375C16.1016 10.6133 16.0666 10.7853 15.9974 10.9506C16.31 11.2089 16.4922 11.5899 16.4922 12ZM11.4141 9.85156C11.5563 9.85156 11.6897 9.88996 11.8047 9.95666V8.42578C11.8047 7.87434 11.3484 7.39062 10.8281 7.39062C10.4911 7.39062 10.2047 7.59812 10.0324 7.85381C10.2767 7.89143 10.502 8.00494 10.6802 8.18293C10.7565 8.25916 10.7566 8.38281 10.6804 8.45914C10.6041 8.53543 10.4804 8.53551 10.4041 8.45928C10.2564 8.31174 10.0602 8.23047 9.85156 8.23047C9.42416 8.23047 9.07031 8.57584 9.07031 9.01172L9.07057 9.02047L9.0708 9.02703C9.1352 9.01701 9.20023 9.01172 9.26562 9.01172C10.0067 9.01172 10.6328 9.66465 10.6328 10.4375C10.6328 10.5454 10.5454 10.6328 10.4375 10.6328C10.3296 10.6328 10.2422 10.5454 10.2422 10.4375C10.2422 9.88607 9.78586 9.40234 9.26562 9.40234C8.71879 9.40234 8.28906 9.91035 8.28906 10.4375C8.28906 10.6016 8.33309 10.7625 8.4199 10.9156C8.47129 11.0062 8.44252 11.1212 8.35453 11.1769C8.06893 11.3578 7.89844 11.6655 7.89844 12C7.89844 12.5514 8.34494 13.0352 8.875 13.0352C8.98287 13.0352 9.07031 13.1226 9.07031 13.2305C9.07031 13.3383 8.98287 13.4258 8.875 13.4258C8.5674 13.4258 8.27602 13.3105 8.04176 13.1185C7.94853 13.2705 7.89844 13.4439 7.89844 13.6211C7.89844 13.9076 8.0282 14.18 8.25445 14.3682C8.31162 14.4158 8.33682 14.4917 8.31941 14.564C8.14996 15.2682 8.77594 15.8976 9.3318 15.8216C9.34553 15.8197 9.35926 15.8179 9.37307 15.8163C9.45668 15.8069 9.53687 15.8519 9.57228 15.9281C9.76436 16.342 10.1806 16.6094 10.6328 16.6094C11.268 16.6094 11.8047 16.0459 11.8047 15.3789C11.8047 14.7327 11.279 14.207 10.6328 14.207C10.5249 14.207 10.4375 14.1196 10.4375 14.0117C10.4375 13.9038 10.5249 13.8164 10.6328 13.8164C11.0992 13.8164 11.5181 14.022 11.8047 14.3471V10.6328C11.8047 10.4174 11.6295 10.2422 11.4141 10.2422C11.3062 10.2422 11.2188 10.1547 11.2188 10.0469C11.2188 9.939 11.3062 9.85156 11.4141 9.85156ZM15.9583 13.1186C15.724 13.3105 15.4326 13.4258 15.125 13.4258C15.0171 13.4258 14.9297 13.3383 14.9297 13.2305C14.9297 13.1226 15.0171 13.0352 15.125 13.0352C15.6535 13.0352 16.1016 12.5533 16.1016 12C16.1016 11.6655 15.9311 11.3578 15.6455 11.1769C15.5575 11.1212 15.5287 11.0062 15.5801 10.9156C15.6669 10.7625 15.7109 10.6016 15.7109 10.4375C15.7109 9.9101 15.2809 9.40234 14.7344 9.40234C14.2141 9.40234 13.7578 9.88607 13.7578 10.4375C13.7578 10.5454 13.6704 10.6328 13.5625 10.6328C13.4546 10.6328 13.3672 10.5454 13.3672 10.4375C13.3672 9.66465 13.9933 9.01172 14.7344 9.01172C14.7998 9.01172 14.8648 9.01701 14.9292 9.02703L14.9296 9.01639L14.9297 9.01172C14.9297 8.57787 14.578 8.23047 14.1484 8.23047C13.9398 8.23047 13.7436 8.31174 13.5958 8.45928C13.5195 8.53551 13.3958 8.53545 13.3196 8.45912C13.2434 8.38279 13.2435 8.25914 13.3198 8.18291C13.498 8.00492 13.7233 7.89141 13.9676 7.85379C13.7953 7.59812 13.5089 7.39062 13.1719 7.39062C12.6516 7.39062 12.1953 7.87434 12.1953 8.42578V9.95666C12.3103 9.88996 12.4437 9.85156 12.5859 9.85156C12.6938 9.85156 12.7812 9.939 12.7812 10.0469C12.7812 10.1547 12.6938 10.2422 12.5859 10.2422C12.3705 10.2422 12.1953 10.4174 12.1953 10.6328V14.3471C12.4819 14.022 12.9008 13.8164 13.3672 13.8164C13.475 13.8164 13.5625 13.9038 13.5625 14.0117C13.5625 14.1196 13.475 14.207 13.3672 14.207C12.721 14.207 12.1953 14.7327 12.1953 15.3789C12.1953 16.0459 12.732 16.6094 13.3672 16.6094C13.8194 16.6094 14.2357 16.342 14.4277 15.9281C14.4631 15.8519 14.5432 15.8068 14.6269 15.8163C14.6407 15.8179 14.6545 15.8197 14.6682 15.8216C15.1626 15.8892 15.7109 15.3992 15.7109 14.7929C15.7109 14.7228 15.7013 14.65 15.6806 14.564C15.6632 14.4917 15.6884 14.4158 15.7456 14.3682C15.9718 14.18 16.1016 13.9076 16.1016 13.6211C16.1016 13.4439 16.0515 13.2706 15.9583 13.1186ZM11.3643 11.1807C11.2924 11.1003 11.1689 11.0935 11.0885 11.1654C10.4622 11.7256 9.46094 11.2779 9.46094 10.4375C9.46094 10.3296 9.3735 10.2422 9.26562 10.2422C9.15775 10.2422 9.07031 10.3296 9.07031 10.4375C9.07031 11.1155 9.56654 11.6796 10.2148 11.7863C10.1396 12.0231 9.9177 12.1953 9.65625 12.1953C9.54838 12.1953 9.46094 12.2828 9.46094 12.3906C9.46094 12.4985 9.54838 12.5859 9.65625 12.5859C10.132 12.5859 10.5291 12.2439 10.6153 11.7929C10.8869 11.7574 11.1425 11.6412 11.349 11.4565C11.4294 11.3846 11.4362 11.2611 11.3643 11.1807ZM9.07031 14.793C9.07031 14.6851 9.15775 14.5977 9.26562 14.5977C10.0067 14.5977 10.6328 15.2506 10.6328 16.0234C10.6328 16.1313 10.5454 16.2188 10.4375 16.2188C10.3296 16.2188 10.2422 16.1313 10.2422 16.0234C10.2422 15.472 9.78586 14.9883 9.26562 14.9883C9.15775 14.9883 9.07031 14.9008 9.07031 14.793ZM10.8281 13.0352C10.1663 13.0352 9.59804 13.3981 9.29882 13.9259C9.24564 14.0198 9.27859 14.139 9.37241 14.1922C9.46626 14.2454 9.58544 14.2124 9.63865 14.1186C9.87175 13.7073 10.3141 13.4258 10.8281 13.4258C10.936 13.4258 11.0234 13.3383 11.0234 13.2305C11.0234 13.1226 10.936 13.0352 10.8281 13.0352ZM13.7852 11.7863C13.8604 12.0231 14.0823 12.1953 14.3438 12.1953C14.4516 12.1953 14.5391 12.2828 14.5391 12.3906C14.5391 12.4985 14.4516 12.5859 14.3438 12.5859C13.868 12.5859 13.4709 12.2439 13.3847 11.7929C13.1131 11.7574 12.8575 11.6412 12.651 11.4565C12.5706 11.3846 12.5638 11.2611 12.6357 11.1807C12.7076 11.1003 12.8311 11.0935 12.9115 11.1654C13.0908 11.3257 13.322 11.4141 13.5625 11.4141C14.101 11.4141 14.5391 10.976 14.5391 10.4375C14.5391 10.3296 14.6265 10.2422 14.7344 10.2422C14.8422 10.2422 14.9297 10.3296 14.9297 10.4375C14.9297 11.1155 14.4335 11.6796 13.7852 11.7863ZM14.7344 14.5977C13.9933 14.5977 13.3672 15.2506 13.3672 16.0234C13.3672 16.1313 13.4546 16.2188 13.5625 16.2188C13.6704 16.2188 13.7578 16.1313 13.7578 16.0234C13.7578 15.472 14.2141 14.9883 14.7344 14.9883C14.8422 14.9883 14.9297 14.9008 14.9297 14.793C14.9297 14.6851 14.8422 14.5977 14.7344 14.5977ZM13.1719 13.0352C13.8352 13.0352 14.4027 13.3994 14.7012 13.926C14.7543 14.0198 14.7214 14.139 14.6275 14.1922C14.5338 14.2453 14.4146 14.2125 14.3613 14.1186C14.1282 13.7072 13.6856 13.4258 13.1719 13.4258C13.064 13.4258 12.9766 13.3383 12.9766 13.2305C12.9766 13.1226 13.064 13.0352 13.1719 13.0352Z" fill="white"/>
</svg>
