<svg width="21" height="21" viewBox="0 0 21 21" fill="none" xmlns="http://www.w3.org/2000/svg">
<path d="M10.5 0C4.7103 0 0 4.7103 0 10.5C0 16.2897 4.7103 21 10.5 21C16.2897 21 21 16.2897 21 10.5C21 4.7103 16.2897 0 10.5 0ZM12.6 17.1129C12.6 17.7121 12.1121 18.2 11.5126 18.2C11.3211 18.2 11.1311 18.1479 10.9627 18.0488C10.9406 18.0359 10.9204 18.0205 10.9018 18.003L6.2671 13.6882C6.2146 13.663 6.15755 13.65 6.09945 13.65H3.1864C2.5872 13.65 2.1 13.1624 2.1 12.5636V8.0864C2.1 7.48755 2.5872 7 3.1864 7H6.0998C6.1579 7 6.21495 6.98705 6.26745 6.96185L10.9018 2.64705C10.9204 2.62955 10.941 2.61415 10.9627 2.6012C11.1311 2.50215 11.3211 2.45 11.5126 2.45C12.1121 2.45 12.6 2.9379 12.6 3.5371V17.1129ZM13.65 13.65C13.5604 13.65 13.4708 13.6157 13.4025 13.5475C13.2657 13.4106 13.2657 13.1894 13.4025 13.0525C14.9065 11.5486 14.9065 9.1014 13.4025 7.59745C13.2657 7.4606 13.2657 7.2394 13.4025 7.10255C13.5394 6.9657 13.7606 6.9657 13.8975 7.10255C15.6744 8.8795 15.6744 11.7705 13.8975 13.5475C13.8292 13.6157 13.7396 13.65 13.65 13.65ZM14.8893 15.0647C14.7998 15.0647 14.7101 15.0304 14.6419 14.9621C14.505 14.8253 14.505 14.6041 14.6419 14.4672C16.8252 12.2839 16.8252 8.73075 14.6419 6.54745C14.505 6.4106 14.505 6.1894 14.6419 6.05255C14.7787 5.9157 15 5.9157 15.1368 6.05255C17.5931 8.5092 17.5931 12.5058 15.1368 14.9621C15.0682 15.0304 14.9786 15.0647 14.8893 15.0647ZM16.164 16.6975C16.0958 16.7657 16.0062 16.8 15.9166 16.8C15.827 16.8 15.7374 16.7657 15.6692 16.6975C15.5323 16.5606 15.5323 16.3394 15.6692 16.2025C17.1938 14.6783 18.0334 12.6529 18.0334 10.5C18.0334 8.34715 17.1938 6.3217 15.6692 4.79745C15.5323 4.6606 15.5323 4.4394 15.6692 4.30255C15.806 4.1657 16.0272 4.1657 16.164 4.30255C17.8209 5.9591 18.7334 8.1599 18.7334 10.5C18.7334 12.8401 17.8209 15.0409 16.164 16.6975Z" fill="white"/>
</svg>
