<svg width="21" height="21" viewBox="0 0 21 21" fill="none" xmlns="http://www.w3.org/2000/svg">
<path d="M10.5 0C4.7103 0 0 4.7103 0 10.5C0 16.2897 4.7103 21 10.5 21C16.2897 21 21 16.2897 21 10.5C21 4.7103 16.2897 0 10.5 0ZM12.6 17.1129C12.6 17.7121 12.1121 18.2 11.5126 18.2C11.3211 18.2 11.131 18.1478 10.9627 18.0488C10.9406 18.0358 10.9204 18.0205 10.9018 18.003L6.2671 13.6882C6.2146 13.663 6.15755 13.65 6.09945 13.65H3.1864C2.5872 13.65 2.1 13.1624 2.1 12.5636V8.0864C2.1 7.48755 2.5872 7 3.1864 7H6.0998C6.1579 7 6.21495 6.98705 6.26745 6.96185L10.9018 2.64705C10.9204 2.62955 10.941 2.61415 10.9627 2.6012C11.131 2.50215 11.3211 2.45 11.5126 2.45C12.1121 2.45 12.6 2.9379 12.6 3.5371V17.1129Z" fill="white"/>
</svg>
